<svg xmlns="http://www.w3.org/2000/svg" viewBox="0 0 1280 640" font-family="-apple-system, 'Segoe UI', sans-serif">
  <defs>
    <linearGradient id="bg" x1="0" y1="0" x2="1" y2="1"><stop offset="0" stop-color="#20242f"/><stop offset="1" stop-color="#15171d"/></linearGradient>
    <linearGradient id="tile" x1="0" y1="0" x2="1" y2="1"><stop offset="0" stop-color="#5b7fd4"/><stop offset="1" stop-color="#7d5bd4"/></linearGradient>
  </defs>
  <rect width="1280" height="640" fill="url(#bg)"/>
  <rect x="240" y="212" width="216" height="216" rx="48" fill="url(#tile)"/>
  <g transform="translate(276 248) scale(6)" fill="none" stroke="#ffffff" stroke-width="2" stroke-linecap="round" stroke-linejoin="round">
    <path d="M3 12a9 9 0 0 1 9-9 9.75 9.75 0 0 1 6.74 2.74L21 8"/><path d="M21 3v5h-5"/><path d="M21 12a9 9 0 0 1-9 9 9.75 9.75 0 0 1-6.74-2.74L3 16"/><path d="M8 16H3v5"/><circle cx="12" cy="12" r="2.4" fill="#ffffff" stroke="none"/>
  </g>
  <text x="516" y="316" fill="#eef0f5" font-size="64" font-weight="700">Config Sync</text>
  <text x="518" y="372" fill="#9aa5c4" font-size="30">Your Obsidian settings, on every device</text>
</svg>
